<svg width="173" height="20" viewBox="0 0 173 20" fill="none" xmlns="http://www.w3.org/2000/svg">
<path d="M16.24 0H11.872L3.276 9.604V0H0V19.6H3.276V14.504L5.124 12.432L11.172 19.6H15.456L7.308 9.968L16.24 0Z" fill="white"/>
<path d="M33.8573 3.276V0H20.7812V19.6H33.8573V16.324H24.0573V11.424H32.2052V8.176H24.0573V3.276H33.8573Z" fill="white"/>
<path d="M51.9004 19.6L46.5804 11.088C48.4844 10.556 50.8924 9.184 50.8924 5.712C50.8924 0 44.3404 0 44.3404 0H37.8164V3.276L40.9244 8.176H37.8164V19.6H41.0924V11.424H42.9684L48.0644 19.6H51.9004ZM41.7084 3.276H44.3404C44.3404 3.276 47.6164 3.276 47.6164 5.712C47.6164 7.644 45.6284 8.064 44.7604 8.148L41.7084 3.276Z" fill="white"/>
<path d="M67.5994 3.276V0H54.5234V19.6H67.5994V16.324H57.7994V11.424H65.9474V8.176H57.7994V3.276H67.5994Z" fill="white"/>
<path d="M77.6906 19.6C80.8546 19.6 83.7946 17.388 83.7946 13.888C83.7946 11.564 82.6746 9.772 80.6026 8.82C79.2026 8.176 77.8306 8.176 77.6906 8.176C76.2346 8.176 74.8346 7.336 74.8346 5.712C74.8346 4.144 76.1506 3.276 77.6906 3.276C79.1746 3.276 80.4906 4.088 80.5466 5.712H83.7946C83.7386 2.38 81.0786 0 77.6906 0C74.5266 0 71.5586 2.24 71.5586 5.712C71.5586 8.036 72.7066 9.828 74.7506 10.78C76.1786 11.424 77.5226 11.424 77.6906 11.424C79.0066 11.48 80.5466 12.236 80.5466 13.888C80.5466 15.428 79.2026 16.324 77.6906 16.324C76.2346 16.324 74.8906 15.512 74.8346 13.888H71.5586C71.6146 17.304 74.3026 19.516 77.6906 19.6Z" fill="white"/>
<path d="M88.375 0L96.215 19.6L104.027 0H88.375ZM93.191 3.248H99.211L96.215 10.78L93.191 3.248Z" fill="white"/>
<path d="M120.537 3.276V0H107.461V19.6H120.537V16.324H110.737V11.424H118.885V8.176H110.737V3.276H120.537Z" fill="white"/>
<path d="M138.58 19.6L133.26 11.088C135.164 10.556 137.572 9.184 137.572 5.712C137.572 0 131.02 0 131.02 0H124.496V3.276L127.604 8.176H124.496V19.6H127.772V11.424H129.648L134.744 19.6H138.58ZM128.388 3.276H131.02C131.02 3.276 134.296 3.276 134.296 5.712C134.296 7.644 132.308 8.064 131.44 8.148L128.388 3.276Z" fill="white"/>
<path d="M148.511 19.6C151.675 19.6 154.615 17.388 154.615 13.888C154.615 11.564 153.495 9.772 151.423 8.82C150.023 8.176 148.651 8.176 148.511 8.176C147.055 8.176 145.655 7.336 145.655 5.712C145.655 4.144 146.971 3.276 148.511 3.276C149.995 3.276 151.311 4.088 151.367 5.712H154.615C154.559 2.38 151.899 0 148.511 0C145.347 0 142.379 2.24 142.379 5.712C142.379 8.036 143.527 9.828 145.571 10.78C146.999 11.424 148.343 11.424 148.511 11.424C149.827 11.48 151.367 12.236 151.367 13.888C151.367 15.428 150.023 16.324 148.511 16.324C147.055 16.324 145.711 15.512 145.655 13.888H142.379C142.435 17.304 145.123 19.516 148.511 19.6Z" fill="white"/>
<path d="M172.271 3.276V0H159.195V19.6H172.271V16.324H162.471V11.424H170.619V8.176H162.471V3.276H172.271Z" fill="white"/>
</svg>
