<svg width="102" height="124" viewBox="0 0 102 124" fill="none" xmlns="http://www.w3.org/2000/svg">
<path d="M73.3087 102.132V103.295L69.0813 105.754V107.916L67.1478 108.981V112.16L62.152 115.011L62.4124 115.909L63.8052 120.713L57.9228 120.917L53.6299 123.285L49.7404 121.024L49.4352 121.204L46.6497 122.417L47.5397 120.123L42.75 117.37L37.1134 120.713L31.3457 117.436V114.011L25.5945 110.734V108.632L20.6788 105.812L19.3189 106.654L16.6317 105.178L10.3397 104.524L12.9286 102.994L12.011 102.46V100.844L10.7985 100.149V97.257L5.01442 93.972V88.3772L1.50795 86.3528V84.9272L1 84.6159V80.8964L49.1566 64.7568L97.3788 80.7817V87.1065L101 91.9238H94.3311V93.9884L92.5451 95.0206V96.086L84.6965 100.624L82.9269 99.5266L75.701 103.607L73.3087 102.132Z" fill="#4A3D66"/>
<path d="M1 80.8964L49.1566 105.178M1 80.8964V84.6159L1.50795 84.9272V86.3528L5.01442 88.3772M1 80.8964L49.1566 64.7568L97.3788 80.7817M49.1566 105.178L97.3788 80.7817M49.1566 105.178V116.191M97.3788 80.7817V87.1065M49.1566 116.191L54.826 112.913V116.191M49.1566 116.191L48.5668 115.862M54.826 116.191V121.024M54.826 116.191L61.544 112.913M54.826 116.191L63.8052 120.713M54.826 121.024L53.6299 120.271V123.285M54.826 121.024L57.9228 120.917M53.6299 123.285L49.7404 121.024M53.6299 123.285L57.9228 120.917M61.544 112.913L64.8866 111.095V109.276M61.544 112.913L62.152 115.011M83.1727 99.2645V95.25L81.7308 96.086M83.1727 99.2645L81.7308 98.5763M83.1727 99.2645L84.6965 98.5763M81.7308 98.5763V96.086M81.7308 98.5763L78.4701 100.395M81.7308 96.086L78.4701 97.9763M78.4701 100.395V97.9763M78.4701 100.395L76.5202 99.2645M78.4701 97.9763L75.5699 99.6577M75.5699 99.6577L73.3087 100.969V102.132M75.5699 99.6577L75.701 103.607M75.701 103.607L73.3087 102.132M75.701 103.607L82.9269 99.5266L84.6965 100.624M73.3087 102.132V103.295L69.0813 105.754M84.6965 100.624V98.5763M84.6965 100.624L92.5451 96.086V95.0206M84.6965 98.5763L90.4806 95.25V96.2332L92.5451 95.0206M92.5451 95.0206L94.3311 93.9884V91.9238M94.3311 91.9238V88.6795M94.3311 91.9238H101M64.8866 109.276V108.194L66.3285 107.356M64.8866 109.276L67.1478 107.916M67.1478 107.916L66.3285 107.356M67.1478 107.916V108.981M66.3285 107.356L69.0813 105.754M67.1478 108.981V112.16L62.152 115.011M67.1478 108.981L69.0813 107.916V105.754M51.5161 114.945V119.976L49.7404 121.024M45.896 117.436V114.372L48.5668 115.862M45.896 117.436L48.5668 115.862M45.896 117.436L42.2092 115.378M38.7028 119.189V113.421L42.2092 115.378M38.7028 119.189L42.2092 117.059M38.7028 119.189L37.1134 118.419V120.713M42.2092 117.059V115.378M42.2092 117.059L42.75 117.37M37.1134 120.713L42.75 117.37M37.1134 120.713L31.3457 117.436V114.011M42.75 117.37L47.5397 120.123M25.5945 108.621V108.632M25.5945 108.632V110.734L31.3457 114.011M25.5945 108.632L31.3457 111.93V114.011M25.5945 108.632L20.6788 105.812M20.6788 105.812L19.3189 106.654M20.6788 105.812L20.3511 105.565M19.3189 106.654V105.458M19.3189 106.654L16.6317 105.178M25.0537 108.227V103.705L21.154 101.493M21.154 101.493L21.0557 105.638M21.154 101.493L18.2702 99.8379L14.649 101.978M21.154 101.493L10.3397 104.524M21.0557 105.638L22.2846 104.934M21.0557 105.638L20.3511 105.565M22.2846 104.934V102.214M22.2846 104.934L24.9554 106.507M5.01442 88.3772L9.02884 90.6949V93.1855L14.4196 96.2495V99.3136M5.01442 88.3772V93.972L10.7985 97.257M14.4196 99.3136V101.853L14.649 101.978M14.4196 99.3136L10.7985 97.257M10.7985 97.257V100.149L12.011 100.844M12.011 100.844V102.46L12.9286 102.994M12.011 100.844L14.3049 102.181M49.4352 121.204L49.7404 121.024M49.4352 121.204V119.976M49.4352 121.204L46.6497 122.417M63.8052 120.713L62.4124 115.909M63.8052 120.713L57.9228 120.917M62.4124 115.909L62.152 115.011M62.4124 115.909V114.945M49.4352 116.191V119.976M49.4352 119.976L47.883 119.238L47.5397 120.123M49.4352 119.976L46.6497 122.417M46.6497 122.417L47.5397 120.123M14.649 101.978L14.3049 102.181M10.3397 104.524L16.6317 105.178M10.3397 104.524L12.9286 102.994M16.6317 105.178L19.3189 105.458M19.3189 105.458L20.3511 105.565M94.3311 88.6795L97.3788 87.1065M94.3311 88.6795L101 91.9238M97.3788 87.1065L101 91.9238M95.9697 89.466L101 91.9238M12.9286 102.994L14.3049 102.181" stroke="black"/>
<g filter="url(#filter0_b_261_3991)">
<path d="M97.3461 69.7858L49.1403 94.1673L1 69.8842L49.1403 1L97.3461 69.7858Z" fill="white" fill-opacity="0.03"/>
<path d="M49.1403 94.1673L97.3461 69.7858L49.1403 1M49.1403 94.1673L1 69.8842L49.1403 1M49.1403 94.1673V1" stroke="black" stroke-opacity="0.5"/>
</g>
<defs>
<filter id="filter0_b_261_3991" x="-11.7422" y="-11.8721" width="121.828" height="118.6" filterUnits="userSpaceOnUse" color-interpolation-filters="sRGB">
<feFlood flood-opacity="0" result="BackgroundImageFix"/>
<feGaussianBlur in="BackgroundImage" stdDeviation="6"/>
<feComposite in2="SourceAlpha" operator="in" result="effect1_backgroundBlur_261_3991"/>
<feBlend mode="normal" in="SourceGraphic" in2="effect1_backgroundBlur_261_3991" result="shape"/>
</filter>
</defs>
</svg>
