<svg width="117" height="111" viewBox="0 0 117 111" fill="none" xmlns="http://www.w3.org/2000/svg">
<path d="M83.9227 85.7414V87.0756L79.0747 89.8957V92.3745L76.8574 93.5959V97.2413L71.1283 100.511L71.4269 101.541L73.0241 107.05L66.2783 107.284L61.3552 110L56.8948 107.407L56.5448 107.614L53.3504 109.004L54.3711 106.373L48.8783 103.216L42.4143 107.05L35.8001 103.292V99.3646L29.2046 95.6065V93.1952L23.5674 89.9619L22.0078 90.9276L18.9262 89.2351L11.7106 88.4849L14.6795 86.7305L13.6272 86.1173V84.2647L12.2367 83.4678V80.151L5.60368 76.3838V69.9677L1.58251 67.6461V66.0114L1 65.6543V61.3889L56.2254 42.8802L111.526 61.2574V68.5105L115.679 74.0349H108.031V76.4025L105.983 77.5863V78.808L96.9821 84.0127L94.9527 82.7537L86.6661 87.4326L83.9227 85.7414Z" fill="url(#paint0_radial_946_2328)"/>
<path d="M1 61.3889L56.2254 89.2351M1 61.3889V65.6543L1.58251 66.0114V67.6461L5.60368 69.9677M1 61.3889L56.2254 42.8802L111.526 61.2574M56.2254 89.2351L111.526 61.2574M56.2254 89.2351V101.864M111.526 61.2574V68.5105M56.2254 101.864L62.7269 98.1056V101.864M56.2254 101.864L55.5489 101.486M62.7269 101.864V107.407M62.7269 101.864L70.431 98.1056M62.7269 101.864L73.0241 107.05M62.7269 107.407L61.3552 106.543V110M62.7269 107.407L66.2783 107.284M61.3552 110L56.8948 107.407M61.3552 110L66.2783 107.284M70.431 98.1056L74.2643 96.0199V93.9341M70.431 98.1056L71.1283 100.511M95.2346 82.4531V77.8494L93.581 78.808M95.2346 82.4531L93.581 81.6639M95.2346 82.4531L96.9821 81.6639M93.581 81.6639V78.808M93.581 81.6639L89.8417 83.7496M93.581 78.808L89.8417 80.9759M89.8417 83.7496V80.9759M89.8417 83.7496L87.6056 82.4531M89.8417 80.9759L86.5157 82.904M86.5157 82.904L83.9227 84.4073V85.7414M86.5157 82.904L86.6661 87.4326M86.6661 87.4326L83.9227 85.7414M86.6661 87.4326L94.9527 82.7537L96.9821 84.0127M83.9227 85.7414V87.0756L79.0747 89.8957M96.9821 84.0127V81.6639M96.9821 84.0127L105.983 78.808V77.5863M96.9821 81.6639L103.615 77.8494V78.9768L105.983 77.5863M105.983 77.5863L108.031 76.4025V74.0349M108.031 74.0349V70.3144M108.031 74.0349H115.679M74.2643 93.9341V92.694L75.9179 91.7321M74.2643 93.9341L76.8574 92.3745M76.8574 92.3745L75.9179 91.7321M76.8574 92.3745V93.5959M75.9179 91.7321L79.0747 89.8957M76.8574 93.5959V97.2413L71.1283 100.511M76.8574 93.5959L79.0747 92.3745V89.8957M58.9312 100.436V106.204L56.8948 107.407M52.4861 103.292V99.778L55.5489 101.486M52.4861 103.292L55.5489 101.486M52.4861 103.292L48.2582 100.932M44.237 105.302V98.6881L48.2582 100.932M44.237 105.302L48.2582 102.86M44.237 105.302L42.4143 104.419V107.05M48.2582 102.86V100.932M48.2582 102.86L48.8783 103.216M42.4143 107.05L48.8783 103.216M42.4143 107.05L35.8001 103.292V99.3646M48.8783 103.216L54.3711 106.373M29.2046 93.1825V93.1952M29.2046 93.1952V95.6065L35.8001 99.3646M29.2046 93.1952L35.8001 96.9782V99.3646M29.2046 93.1952L23.5674 89.9619M23.5674 89.9619L22.0078 90.9276M23.5674 89.9619L23.1916 89.6786M22.0078 90.9276V89.5555M22.0078 90.9276L18.9262 89.2351M28.5845 92.7315V87.5453L24.1124 85.0086M24.1124 85.0086L23.9996 89.7626M24.1124 85.0086L20.8052 83.1108L16.6525 85.5646M24.1124 85.0086L11.7106 88.4849M23.9996 89.7626L25.4089 88.9546M23.9996 89.7626L23.1916 89.6786M25.4089 88.9546V85.8354M25.4089 88.9546L28.4718 90.7585M5.60368 69.9677L10.2074 72.6256V75.4818L16.3895 78.9956V82.5095M5.60368 69.9677V76.3837L12.2367 80.151M16.3895 82.5095V85.422L16.6525 85.5646M16.3895 82.5095L12.2367 80.151M12.2367 80.151V83.4678L13.6272 84.2647M13.6272 84.2647V86.1173L14.6795 86.7305M13.6272 84.2647L16.2579 85.7978M56.5448 107.614L56.8948 107.407M56.5448 107.614V106.204M56.5448 107.614L53.3504 109.004M73.0241 107.05L71.4269 101.541M73.0241 107.05L66.2783 107.284M71.4269 101.541L71.1283 100.511M71.4269 101.541V100.436M56.5448 101.864V106.204M56.5448 106.204L54.7648 105.359L54.3711 106.373M56.5448 106.204L53.3504 109.004M53.3504 109.004L54.3711 106.373M16.6525 85.5646L16.2579 85.7978M11.7106 88.4849L18.9262 89.2351M11.7106 88.4849L14.6795 86.7305M18.9262 89.2351L22.0078 89.5555M22.0078 89.5555L23.1916 89.6786M108.031 70.3144L111.526 68.5105M108.031 70.3144L115.679 74.0349M111.526 68.5105L115.679 74.0349M109.91 71.2163L115.679 74.0349M14.6795 86.7305L16.2579 85.7978" stroke="black" stroke-width="0.5"/>
<g filter="url(#filter0_b_946_2328)">
<path d="M70.625 73.088L55.8462 80.6406L19.0391 61.9886V47.5819L27.4355 44.1607L28.6242 42.313L55.8462 0L86.906 43.494L87.8038 44.7512L94.2012 46.7092V61.1653L86.9652 64.8387L70.625 73.088Z" fill="url(#paint1_linear_946_2328)"/>
<path d="M70.5123 72.8648L70.5112 72.8653L55.8457 80.3601L19.2891 61.835V47.75L27.5298 44.3922L27.603 44.3624L27.6457 44.296L28.8344 42.4483L55.857 0.445292L86.7026 43.6393L87.6004 44.8965L87.6496 44.9654L87.7307 44.9902L93.9512 46.8941V61.0118L86.8526 64.6155L86.8521 64.6157L70.5123 72.8648Z" stroke="black" stroke-width="0.5"/>
</g>
<defs>
<filter id="filter0_b_946_2328" x="12.0391" y="-7" width="89.1641" height="94.6406" filterUnits="userSpaceOnUse" color-interpolation-filters="sRGB">
<feFlood flood-opacity="0" result="BackgroundImageFix"/>
<feGaussianBlur in="BackgroundImage" stdDeviation="3.5"/>
<feComposite in2="SourceAlpha" operator="in" result="effect1_backgroundBlur_946_2328"/>
<feBlend mode="normal" in="SourceGraphic" in2="effect1_backgroundBlur_946_2328" result="shape"/>
</filter>
<radialGradient id="paint0_radial_946_2328" cx="0" cy="0" r="1" gradientUnits="userSpaceOnUse" gradientTransform="translate(55.4724 51.6054) rotate(87.1892) scale(58.465 99.8912)">
<stop stop-color="#040404"/>
<stop offset="1" stop-color="#4A3D66" stop-opacity="0.33"/>
</radialGradient>
<linearGradient id="paint1_linear_946_2328" x1="56.6201" y1="0" x2="56.6201" y2="80.6406" gradientUnits="userSpaceOnUse">
<stop stop-color="#5D6CBB"/>
<stop offset="0.520833" stop-color="#A168C5" stop-opacity="0.6"/>
<stop offset="0.911458" stop-color="#2C0A41" stop-opacity="0.21"/>
</linearGradient>
</defs>
</svg>
