<svg width="102" height="97" viewBox="0 0 102 97" fill="none" xmlns="http://www.w3.org/2000/svg">
<path d="M73.3087 74.7667V75.9301L69.0813 78.3892V80.5507L67.1478 81.6158V84.7946L62.152 87.6456L62.4124 88.5437L63.8052 93.3477L57.9228 93.5517L53.6299 95.9202L49.7404 93.6591L49.4352 93.8393L46.6497 95.0518L47.5397 92.7579L42.75 90.0046L37.1134 93.3477L31.3457 90.0707V86.6461L25.5945 83.369V81.2664L20.6788 78.447L19.3189 79.2891L16.6317 77.8132L10.3397 77.159L12.9286 75.6292L12.011 75.0944V73.4789L10.7985 72.7841V69.8918L5.01442 66.6068V61.012L1.50795 58.9876V57.562L1 57.2507V53.5312L49.1566 37.3916L97.3788 53.4165V59.7413L101 64.5586H94.3311V66.6231L92.5451 67.6554V68.7208L84.6965 73.2592L82.9269 72.1614L75.701 76.2414L73.3087 74.7667Z" fill="#4A3D66"/>
<path d="M1 53.5312L49.1566 77.8132M1 53.5312V57.2507L1.50795 57.562V58.9876L5.01442 61.012M1 53.5312L49.1566 37.3916L97.3788 53.4165M49.1566 77.8132L97.3788 53.4165M49.1566 77.8132V88.8254M97.3788 53.4165V59.7413M49.1566 88.8254L54.826 85.5483V88.8254M49.1566 88.8254L48.5668 88.4963M54.826 88.8254V93.6591M54.826 88.8254L61.544 85.5483M54.826 88.8254L63.8052 93.3477M54.826 93.6591L53.6299 92.9053V95.9202M54.826 93.6591L57.9228 93.5517M53.6299 95.9202L49.7404 93.6591M53.6299 95.9202L57.9228 93.5517M61.544 85.5483L64.8866 83.7295V81.9107M61.544 85.5483L62.152 87.6456M83.1727 71.8992V67.8848L81.7308 68.7208M83.1727 71.8992L81.7308 71.2111M83.1727 71.8992L84.6965 71.2111M81.7308 71.2111V68.7208M81.7308 71.2111L78.4701 73.0298M81.7308 68.7208L78.4701 70.6111M78.4701 73.0298V70.6111M78.4701 73.0298L76.5202 71.8992M78.4701 70.6111L75.5699 72.2924M75.5699 72.2924L73.3087 73.6033V74.7667M75.5699 72.2924L75.701 76.2414M75.701 76.2414L73.3087 74.7667M75.701 76.2414L82.9269 72.1614L84.6965 73.2592M73.3087 74.7667V75.9301L69.0813 78.3892M84.6965 73.2592V71.2111M84.6965 73.2592L92.5451 68.7208V67.6554M84.6965 71.2111L90.4806 67.8848V68.8679L92.5451 67.6554M92.5451 67.6554L94.3311 66.6231V64.5586M94.3311 64.5586V61.3143M94.3311 64.5586H101M64.8866 81.9107V80.8293L66.3285 79.9905M64.8866 81.9107L67.1478 80.5507M67.1478 80.5507L66.3285 79.9905M67.1478 80.5507V81.6158M66.3285 79.9905L69.0813 78.3892M67.1478 81.6158V84.7946L62.152 87.6456M67.1478 81.6158L69.0813 80.5507V78.3892M51.5161 87.5801V92.6104L49.7404 93.6591M45.896 90.0707V87.0066L48.5668 88.4963M45.896 90.0707L48.5668 88.4963M45.896 90.0707L42.2092 88.0131M38.7028 91.8239V86.0562L42.2092 88.0131M38.7028 91.8239L42.2092 89.6938M38.7028 91.8239L37.1134 91.0538V93.3477M42.2092 89.6938V88.0131M42.2092 89.6938L42.75 90.0046M37.1134 93.3477L42.75 90.0046M37.1134 93.3477L31.3457 90.0707V86.6461M42.75 90.0046L47.5397 92.7579M25.5945 81.2553V81.2664M25.5945 81.2664V83.369L31.3457 86.6461M25.5945 81.2664L31.3457 84.5652V86.6461M25.5945 81.2664L20.6788 78.447M20.6788 78.447L19.3189 79.2891M20.6788 78.447L20.3511 78.1999M19.3189 79.2891V78.0926M19.3189 79.2891L16.6317 77.8132M25.0537 80.8621V76.3397L21.154 74.1277M21.154 74.1277L21.0557 78.2732M21.154 74.1277L18.2702 72.4727L14.649 74.6125M21.154 74.1277L10.3397 77.159M21.0557 78.2732L22.2846 77.5686M21.0557 78.2732L20.3511 78.1999M22.2846 77.5686V74.8486M22.2846 77.5686L24.9554 79.1416M5.01442 61.012L9.02884 63.3297V65.8203L14.4196 68.8843V71.9484M5.01442 61.012V66.6068L10.7985 69.8918M14.4196 71.9484V74.4881L14.649 74.6125M14.4196 71.9484L10.7985 69.8918M10.7985 69.8918V72.7841L12.011 73.4789M12.011 73.4789V75.0944L12.9286 75.6292M12.011 73.4789L14.3049 74.8158M49.4352 93.8393L49.7404 93.6591M49.4352 93.8393V92.6104M49.4352 93.8393L46.6497 95.0518M63.8052 93.3477L62.4124 88.5437M63.8052 93.3477L57.9228 93.5517M62.4124 88.5437L62.152 87.6456M62.4124 88.5437V87.5801M49.4352 88.8254V92.6104M49.4352 92.6104L47.883 91.873L47.5397 92.7579M49.4352 92.6104L46.6497 95.0518M46.6497 95.0518L47.5397 92.7579M14.649 74.6125L14.3049 74.8158M10.3397 77.159L16.6317 77.8132M10.3397 77.159L12.9286 75.6292M16.6317 77.8132L19.3189 78.0926M19.3189 78.0926L20.3511 78.1999M94.3311 61.3143L97.3788 59.7413M94.3311 61.3143L101 64.5586M97.3788 59.7413L101 64.5586M95.9697 62.1008L101 64.5586M12.9286 75.6292L14.3049 74.8158" stroke="black"/>
<path d="M61.4881 63.2865L61.4859 63.2876L48.8254 69.7577L17.2305 53.747V41.8277L24.2408 38.9713L24.3872 38.9116L24.4726 38.7787L25.5092 37.1676L48.8479 0.890584L75.5037 38.2174L76.2866 39.3137L76.3851 39.4516L76.5471 39.5012L81.772 41.1003V53.0293L75.7369 56.0931L75.7359 56.0936L61.4881 63.2865Z" fill="#7B6589" stroke="black"/>
</svg>
