<svg width="65" height="61" viewBox="0 0 65 61" fill="none" xmlns="http://www.w3.org/2000/svg">
<path fill-rule="evenodd" clip-rule="evenodd" d="M32.8155 60.8981L35.3398 59.6359L43.5437 55.534L49.2233 52.3786L53.3252 50.3277L54.1141 49.9333L54.9029 49.5388L61.2136 46.068L59.0049 42.9126L58.709 42.4393L58.4132 41.966L54.2718 35.3398L53.2201 33.7621L52.6942 32.9733L47.3301 24.9272L39.7573 13.2524L32.8155 3.15534L26.1893 13.2524L18.6165 24.9272L13.2524 32.9733L11.6748 35.3398L9.15049 39.1262L7.25728 41.966L7.04693 42.2816L6.62621 42.9126L5.99515 43.9644L4.73301 46.068L11.0437 49.5388L12.5337 50.3277L13.568 50.8752L16.4078 52.3786L22.4029 55.534L30.6068 59.6359L32.8155 60.8981ZM11.9903 43.8592L15.7388 38.1796L24.2772 25.2427L28.5464 18.7743L32.8155 12.3058L37.1494 18.7743L41.2718 24.9272L50.151 38.1796L53.9563 43.8592L38.2609 52.0583L36.6593 52.895L32.8155 54.9029L29.0291 52.895L27.4515 52.0583L11.9903 43.8592Z" fill="white"/>
<path d="M32.8155 0L4.73301 24.9272L5.67961 25.8212L6.06939 26.1893L13.0103 32.7446L15.6393 28.3981L14.9106 27.7049L14.3035 27.1275L11.9903 24.9272L14.9106 22.4029L16.0922 21.3815L24.0366 14.5146L32.8155 0Z" fill="white"/>
<path d="M60.8981 24.9272L32.8155 0L41.7116 14.5146L49.2233 21.0713L50.7488 22.4029L53.6408 24.9272L51.4727 27.1275L50.9037 27.7049L50.2208 28.3981L52.9008 32.7707L59.6112 26.1893L59.9515 25.8556L60.8981 24.9272Z" fill="white"/>
<path d="M24.9272 24.7383L32.8155 18.6165L40.9302 24.7383L36.4884 18.1245L32.8155 14.5146L29.1975 18.1245L24.9272 24.7383Z" fill="white"/>
<path d="M4.73301 40.7039L11.0437 35.9961L11.7193 34.8791L3.78641 40.7039L7.01454 42.2659L7.25728 41.966L4.73301 40.7039Z" fill="white"/>
<path d="M29.0291 52.895L32.8155 53.6408L36.6593 52.895L38.2609 52.0583L32.8155 53.0097L27.4515 52.0583L29.0291 52.895Z" fill="white"/>
<path d="M49.4421 27.1275L50.9037 27.7049L51.4727 27.1275L48.8839 26.2168L49.4421 27.1275Z" fill="white"/>
<path d="M49.2233 21.0713L44.3223 18.7743L44.7376 19.4517L50.7488 22.4029L49.2233 21.0713Z" fill="white"/>
<path d="M21.4601 18.7743L16.0922 21.3815L14.9106 22.4029L21.0504 19.4517L21.4601 18.7743Z" fill="white"/>
<path d="M14.9106 27.7049L16.4078 27.1275L16.9586 26.2168L14.3035 27.1275L14.9106 27.7049Z" fill="white"/>
<path d="M53.3252 50.3277L65 48.5922L58.8255 42.3808L58.709 42.4393L59.0049 42.9126L63.4223 48.2136L54.1141 49.9333L53.3252 50.3277Z" fill="white"/>
<path fill-rule="evenodd" clip-rule="evenodd" d="M41.4004 25.3269L32.8155 19.2476L24.6055 25.2427L16.9586 37.233L32.8155 24.7383L49.3255 37.5485L41.4004 25.3269Z" fill="white"/>
<path d="M59.6112 26.1893L60.8981 26.8204L59.5021 28.0825L53.4056 33.5944L54.1931 34.8791L60.8981 29.6602L59.8765 28.5057L61.8447 26.8204L59.9515 25.8556L59.6112 26.1893Z" fill="white"/>
<path d="M4.73301 26.8204L6.06939 26.1893L5.67961 25.8212L3.78641 26.8204L5.84746 28.3981L4.73301 29.6602L11.7193 34.8791L12.3949 33.7621L6.12608 28.0825L4.73301 26.8204Z" fill="white"/>
<path d="M12.5337 50.3277L1.8932 48.5922L5.99515 43.9644L6.62621 42.9126L7.04693 42.2816L6.88304 42.4283L0 48.5922L13.568 50.8752L12.5337 50.3277Z" fill="white"/>
<path d="M54.8777 35.9961L61.2136 40.7039L58.4132 41.966L58.709 42.4393L58.8255 42.3808L62.1602 40.7039L54.1931 34.8791L54.8777 35.9961Z" fill="white"/>
<path fill-rule="evenodd" clip-rule="evenodd" d="M16.9586 41.335L32.8155 28.3981L48.9078 41.335L32.8155 48.5922L16.9586 41.335ZM32.8155 47.3301L47.3301 41.335L42.3049 37.4022L32.8155 46.068L23.5325 37.4022L18.6165 41.335L32.8155 47.3301ZM32.8155 29.9757L24.2961 36.7913L32.8155 45.1214L41.5243 36.7913L32.8155 29.9757Z" fill="white"/>
</svg>
