<svg width="18" height="10" viewBox="0 0 18 10" fill="none" xmlns="http://www.w3.org/2000/svg">
<path d="M16.3636 0H1.63636C0.736364 0 0 0.736364 0 1.63636V8.18182C0 9.08182 0.736364 9.81818 1.63636 9.81818H16.3636C17.2636 9.81818 18 9.08182 18 8.18182V1.63636C18 0.736364 17.2636 0 16.3636 0ZM8.18182 5.72727H5.72727V8.18182H4.09091V5.72727H1.63636V4.09091H4.09091V1.63636H5.72727V4.09091H8.18182V5.72727ZM11.8636 7.36364C11.1845 7.36364 10.6364 6.81545 10.6364 6.13636C10.6364 5.45727 11.1845 4.90909 11.8636 4.90909C12.5427 4.90909 13.0909 5.45727 13.0909 6.13636C13.0909 6.81545 12.5427 7.36364 11.8636 7.36364ZM15.1364 4.90909C14.4573 4.90909 13.9091 4.36091 13.9091 3.68182C13.9091 3.00273 14.4573 2.45455 15.1364 2.45455C15.8155 2.45455 16.3636 3.00273 16.3636 3.68182C16.3636 4.36091 15.8155 4.90909 15.1364 4.90909Z" fill="white"/>
</svg>
